# xmcd
#
# Track frame offsets:
#	150
#	6089
#	16108
#	28648
#	40544
#	49237
#	58423
#	70509
#	77926
#	88550
#	96204
#	105880
#	117642
#	125794
#	137645
#	152816
#
# Disc length: 2138 seconds
#
# Revision: 0
# Processed by: cddbd v1.5.2PL0 Copyright (c) Steve Scherf et al.
# Submitted via: EasyCDDAExtractor 10.0.2.1
#
DISCID=cc085810
DTITLE=Jim Reeves - Country Sessions
DYEAR=2008
DGENRE=Country
TTITLE0=Have I told you lately that I love you
TTITLE1=He'll have to go
TTITLE2=Bimbo
TTITLE3=Mexican Joe
TTITLE4=Yonder comes a Sucker
TTITLE5=Billy Bayou
TTITLE6=Four walls
TTITLE7=Blue Boy
TTITLE8=I missed me
TTITLE9=Oklahoma Hills
TTITLE10=Home
TTITLE11=Your old love letters
TTITLE12=Waiting for a train
TTITLE13=I've lived a lot in my time
TTITLE14=Making believe
TTITLE15=I know one
EXTD=
EXTT0=
EXTT1=
EXTT2=
EXTT3=
EXTT4=
EXTT5=
EXTT6=
EXTT7=
EXTT8=
EXTT9=
EXTT10=
EXTT11=
EXTT12=
EXTT13=
EXTT14=
EXTT15=
PLAYORDER=
